<?xml version="1.0" encoding="UTF-8" standalone="no"?>
<svg
   width="40.979954"
   height="45.902378"
   viewBox="0 0 40.979954 45.902378"
   version="1.1"
   id="svg6"
   sodipodi:docname="tallphp.svg"
   inkscape:version="1.2.1 (9c6d41e410, 2022-07-14)"
   xmlns:inkscape="http://www.inkscape.org/namespaces/inkscape"
   xmlns:sodipodi="http://sodipodi.sourceforge.net/DTD/sodipodi-0.dtd"
   xmlns="http://www.w3.org/2000/svg"
   xmlns:svg="http://www.w3.org/2000/svg"
   xmlns:rdf="http://www.w3.org/1999/02/22-rdf-syntax-ns#"
   xmlns:cc="http://creativecommons.org/ns#"
   xmlns:dc="http://purl.org/dc/elements/1.1/">
  <defs
     id="defs10" />
  <sodipodi:namedview
     id="namedview8"
     pagecolor="#ffffff"
     bordercolor="#000000"
     borderopacity="0.25"
     inkscape:showpageshadow="2"
     inkscape:pageopacity="0.0"
     inkscape:pagecheckerboard="0"
     inkscape:deskcolor="#d1d1d1"
     showgrid="false"
     inkscape:zoom="10.096154"
     inkscape:cx="25.009524"
     inkscape:cy="24.96"
     inkscape:window-width="1366"
     inkscape:window-height="705"
     inkscape:window-x="-8"
     inkscape:window-y="-8"
     inkscape:window-maximized="1"
     inkscape:current-layer="svg6" />
  <title
     id="title2">Logomark</title>
  <path
     d="m 26.184267,36.869674 a 0.18477289,0.18477289 0 0 1 0.0065,0.047 v 2.50597 a 0.18271737,0.18271737 0 0 1 -0.092,0.158502 l -2.103305,1.210965 v 2.400217 c 0,0.065 -0.035,0.125602 -0.091,0.158502 l -4.390473,2.52744 c -0.01,0.0055 -0.021,0.0095 -0.032,0.013 -0.0041,0.0013 -0.008,0.0038 -0.012,0.005 a 0.18385938,0.18385938 0 0 1 -0.094,0 c -0.005,-0.0014 -0.0095,-0.0041 -0.014,-0.006 -0.01,-0.0037 -0.02,-0.007 -0.03,-0.012 l -4.389552,-2.52742 a 0.18294577,0.18294577 0 0 1 -0.092,-0.158502 V 35.67444 c 0,-0.017 0.0023,-0.033 0.0065,-0.048 0.0014,-0.0055 0.0045,-0.01 0.0065,-0.016 0.0034,-0.0095 0.0065,-0.02 0.011,-0.028 0.0034,-0.006 0.0085,-0.01 0.013,-0.016 0.0055,-0.0075 0.01,-0.015 0.016,-0.021 0.0055,-0.0055 0.012,-0.009 0.018,-0.014 0.0065,-0.0055 0.012,-0.011 0.02,-0.016 h 2.3e-4 l 2.194886,-1.263725 a 0.18317418,0.18317418 0 0 1 0.182702,0 l 2.194896,1.263725 h 4.6e-4 c 0.0075,0.0046 0.014,0.01 0.02,0.016 0.006,0.0045 0.012,0.0085 0.018,0.013 0.0065,0.0065 0.011,0.014 0.016,0.022 0.0039,0.0055 0.009,0.01 0.012,0.016 0.0055,0.009 0.008,0.018 0.012,0.028 0.0019,0.005 0.005,0.01 0.0065,0.016 a 0.18477289,0.18477289 0 0 1 0.0065,0.048 v 4.695615 l 1.829002,-1.053142 v -2.400449 c 0,-0.016 0.0023,-0.032 0.0065,-0.048 0.0016,-0.0055 0.0045,-0.01 0.0065,-0.016 0.0036,-0.0095 0.007,-0.019 0.012,-0.028 0.0034,-0.006 0.0085,-0.01 0.012,-0.016 0.0055,-0.0075 0.01,-0.015 0.016,-0.021 0.0055,-0.0055 0.012,-0.009 0.018,-0.014 0.007,-0.0055 0.013,-0.011 0.02,-0.016 h 2.3e-4 l 2.195116,-1.263715 a 0.18294577,0.18294577 0 0 1 0.182703,0 l 2.194886,1.263715 c 0.008,0.0045 0.014,0.01 0.02,0.016 0.0055,0.0046 0.012,0.0085 0.018,0.013 0.0065,0.0065 0.011,0.014 0.016,0.022 0.0041,0.0055 0.009,0.01 0.012,0.016 0.0055,0.009 0.008,0.018 0.012,0.028 0.002,0.0055 0.005,0.01 0.0065,0.016 z m -0.359505,2.447949 v -2.083885 l -0.768109,0.442105 -1.061132,0.611008 v 2.083895 l 1.829451,-1.053143 z m -2.194886,3.769694 v -2.085264 l -1.043772,0.596107 -2.980576,1.701089 v 2.104905 z m -8.41413,-7.095834 v 7.095834 l 4.023888,2.316617 v -2.104445 l -2.102165,-1.189714 -7e-4,-4.6e-4 -9e-4,-4.6e-4 c -0.007,-0.0041 -0.013,-0.01 -0.019,-0.015 -0.0055,-0.0046 -0.012,-0.008 -0.018,-0.013 l -4.6e-4,-7e-4 c -0.006,-0.0055 -0.01,-0.013 -0.015,-0.019 -0.0046,-0.006 -0.01,-0.011 -0.013,-0.018 l -2.3e-4,-7e-4 c -0.0041,-0.007 -0.0065,-0.015 -0.0095,-0.023 -0.0029,-0.007 -0.007,-0.013 -0.0085,-0.021 v -2.3e-4 c -0.0023,-0.0085 -0.0028,-0.018 -0.0037,-0.027 -9e-4,-0.007 -0.0027,-0.013 -0.0027,-0.02 v -4.6e-4 -4.906187 l -1.060903,-0.611207 -0.768109,-0.441706 z m 2.012164,-1.369006 -1.828771,1.052673 1.828321,1.052682 1.828542,-1.052912 -1.828542,-1.052443 z m 0.951012,6.569598 1.060902,-0.610707 v -4.589865 l -0.768109,0.442206 -1.061133,0.611007 v 4.589865 z m 5.633856,-5.327353 -1.828541,1.052682 1.828541,1.052683 1.828312,-1.052913 z m -0.182902,2.422149 -1.061132,-0.611008 -0.768109,-0.442205 v 2.083885 l 1.060902,0.610707 0.768309,0.442406 z m -4.20752,4.696065 2.682062,-1.531168 1.340686,-0.765109 -1.827172,-1.052002 -2.103765,1.211194 -1.917392,1.103842 z"
     fill="#ff2d20"
     fill-rule="evenodd"
     id="path4"
     style="stroke-width:0.228396" />
  <path
     d="M 18.623125,7.072924 V 9.257 c 0,0.391905 -0.317803,0.709709 -0.709708,0.709709 -0.392005,0 -0.709709,-0.317704 -0.709709,-0.709709 V 6.620369 c 0.132402,-0.243103 0.283704,-0.453606 0.556507,-0.453606 0.444105,0 0.599207,0.557807 0.86281,0.906211 z m 2.680942,0.113802 v 3.453771 c 0,0.435505 -0.353104,0.788509 -0.788509,0.788509 -0.435505,0 -0.78851,-0.353104 -0.78851,-0.788509 V 6.73151 c 0.148502,-0.286303 0.301604,-0.564807 0.615308,-0.564807 0.496706,0 0.632007,0.698009 0.961711,1.019983 z m 2.52324,-0.063 v 2.50736 c 0,0.391904 -0.317704,0.709708 -0.709708,0.709708 -0.391905,0 -0.709709,-0.317704 -0.709709,-0.709708 V 6.549269 c 0.123502,-0.211502 0.270703,-0.382205 0.516306,-0.382205 0.466206,0 0.614008,0.614808 0.903011,0.956612 z"
     id="use5087"
     style="fill:#4e56a6;stroke-width:0.228396" />
  <path
     d="m 25.143023,7.5935 c -0.186302,0.281704 -0.327904,0.628808 -0.706709,0.628808 -0.637607,0 -0.672008,-0.983112 -1.309935,-0.983112 -0.637908,0 -0.603407,0.983112 -1.240985,0.983112 -0.637508,0 -0.672008,-0.983112 -1.309926,-0.983112 -0.637907,0 -0.603407,0.983112 -1.240984,0.983112 -0.637608,0 -0.672008,-0.983112 -1.309926,-0.983112 -0.637907,0 -0.603407,0.983112 -1.240995,0.983112 -0.200402,0 -0.341104,-0.097 -0.459905,-0.230303 C 15.867453,7.198096 15.604949,6.267685 15.604949,5.272983 15.604949,2.360798 17.854596,0 20.629679,0 c 2.775063,0 5.02471,2.360798 5.02471,5.272983 0,0.83271 -0.183902,1.620279 -0.511406,2.320497 z"
     id="Body-Copy-4"
     fill="#fb70a9"
     style="stroke-width:0.228396" />
  <polygon
     id="Path"
     fill="#77c1d2"
     points="109.64828,50 149.52038,10.302777 189.39248,50 149.52038,89.697223 "
     transform="matrix(0.22839671,0,0,0.22839671,-2.2766641,1.152584)" />
  <polygon
     id="polygon7573"
     fill="#2d3441"
     points="9.9680251,50 49.840125,10.302777 132.49997,92.600082 52.755773,92.600082 "
     transform="matrix(0.22839671,0,0,0.22839671,-2.2766641,1.152584)" />
  <path
     d="m 11.73593,25.516619 h 3.244149 c 0.952211,0.008 1.64218,0.282503 2.069965,0.82311 0.427805,0.540606 0.568906,1.279015 0.423705,2.215216 -0.056,0.427805 -0.181603,0.84731 -0.375305,1.258925 -0.185702,0.411505 -0.443805,0.782709 -0.774709,1.113653 -0.403605,0.419605 -0.83521,0.685909 -1.295245,0.79891 -0.460006,0.113101 -0.936212,0.169402 -1.428387,0.169402 h -1.452608 l -0.460005,2.299947 h -1.6826 l 1.73102,-8.679303 v 0 m 1.416287,1.379977 -0.726308,3.631503 c 0.048,0.008 0.097,0.012 0.145201,0.012 0.056,0 0.113102,0 0.169502,0 0.77471,0.008 1.420397,-0.069 1.936803,-0.230003 0.516407,-0.169402 0.863611,-0.758509 1.041033,-1.767331 0.145202,-0.84731 0,-1.335666 -0.435805,-1.464707 -0.427805,-0.129102 -0.964312,-0.189603 -1.60997,-0.181602 -0.097,0.008 -0.189602,0.012 -0.278403,0.012 -0.081,0 -0.165402,0 -0.254203,0 l 0.012,-0.012"
     id="path1090"
     style="stroke-width:0.228396" />
  <path
     d="m 19.390421,23.204562 h 1.67049 l -0.472105,2.312057 h 1.501027 c 0.82311,0.016 1.436388,0.185702 1.839962,0.508406 0.411605,0.322704 0.532607,0.936211 0.363205,1.839962 l -0.81101,4.030978 h -1.6947 l 0.774709,-3.849406 c 0.081,-0.403505 0.056,-0.690008 -0.073,-0.85951 -0.129101,-0.169402 -0.407505,-0.254203 -0.83521,-0.254203 l -1.343666,-0.012 -0.992611,4.975169 h -1.67049 l 1.74312,-8.691403 v 0"
     id="path1092"
     style="stroke-width:0.228396" />
  <path
     d="m 26.086781,25.516619 h 3.244148 c 0.952212,0.008 1.64217,0.282503 2.069955,0.82311 0.427805,0.540606 0.568907,1.279015 0.423705,2.215216 -0.056,0.427805 -0.181602,0.84731 -0.375304,1.258925 -0.185703,0.411505 -0.443806,0.782709 -0.77471,1.113653 -0.403604,0.419605 -0.835209,0.685909 -1.295235,0.79891 -0.460005,0.113101 -0.936211,0.169402 -1.428387,0.169402 h -1.452607 l -0.460006,2.299947 h -1.6826 l 1.731021,-8.679303 v 0 m 1.416287,1.379977 -0.726309,3.631503 c 0.048,0.008 0.097,0.012 0.145202,0.012 0.056,0 0.113101,0 0.169502,0 0.774709,0.008 1.420397,-0.069 1.936803,-0.230003 0.516406,-0.169402 0.86351,-0.758509 1.041032,-1.767331 0.145302,-0.84731 0,-1.335666 -0.435705,-1.464707 -0.427805,-0.129102 -0.964311,-0.189603 -1.609969,-0.181602 -0.097,0.008 -0.189602,0.012 -0.278403,0.012 -0.081,0 -0.165402,0 -0.254203,0 l 0.012,-0.012"
     id="path1094"
     style="stroke-width:0.228396" />
  <metadata
     id="metadata9222">
    <rdf:RDF>
      <cc:Work
         rdf:about="">
        <dc:title>Logomark</dc:title>
      </cc:Work>
    </rdf:RDF>
  </metadata>
</svg>
